<?xml version="1.0" encoding="UTF-8"?>
<svg version="1.1" xmlns="http://www.w3.org/2000/svg" width="2000" height="2000">
<path d="M0 0 C148.83 0 297.66 0 451 0 C525.87097614 149.66119499 525.87097614 149.66119499 554.49875498 206.90118003 C561.98508973 221.86976691 569.47146181 236.83833511 576.95794889 251.8068458 C577.86355207 253.61751248 578.76915407 255.42817974 579.67475489 257.2388476 C594.12427632 286.12934941 608.57638593 315.01855558 623.02984183 343.90708921 C637.87852102 373.58560107 652.72459149 403.26541643 667.56735792 432.94688585 C669.66146654 437.13452675 671.75560513 441.32215265 673.84976196 445.50976944 C674.26194081 446.33399228 674.67411965 447.15821512 675.09878876 448.00741441 C681.74676951 461.30100802 688.39751728 474.59321545 695.04928842 487.88491278 C701.72864566 501.23187961 708.40511519 514.58028766 715.07859778 527.93019281 C719.04859448 535.87171297 723.02084233 543.81209787 726.99625235 551.75090962 C729.64695412 557.04484927 732.29478531 562.34021782 734.94022602 567.63678842 C736.45061348 570.66060152 737.96272693 573.68351821 739.47746217 576.70515798 C741.10398255 579.95027241 742.72564689 583.19776607 744.34602356 586.44595146 C744.8241185 587.39688732 745.30221344 588.34782317 745.79479611 589.32757527 C746.22195444 590.1863865 746.64911276 591.04519774 747.08921528 591.93003356 C747.46107309 592.67343722 747.8329309 593.41684087 748.21605712 594.18277191 C749 596 749 596 749 598 C749.66 598 750.32 598 751 598 C751.34437034 596.8238729 751.34437034 596.8238729 751.69569767 595.62398565 C753.39841694 590.89300415 755.61213078 586.5043958 757.86883736 582.01622963 C758.37090366 581.00978934 758.87296996 580.00334906 759.39025038 578.96641058 C761.0823066 575.5769826 762.78007914 572.1904504 764.47781372 568.80386353 C765.70126796 566.35719651 766.92351352 563.90992626 768.14581478 561.46268308 C770.80842642 556.13331262 773.47400807 550.80543609 776.1415329 545.47852325 C780.10803703 537.55758059 784.06995523 529.6343506 788.03093133 521.71064242 C794.69391661 508.38204333 801.36062623 495.05531038 808.02945328 481.72963333 C814.63334972 468.53367053 821.23559387 455.33688324 827.83562851 442.13898849 C828.24584968 441.31868364 828.65607084 440.49837878 829.07872296 439.6532162 C831.16198183 435.48737512 833.24521115 431.32151925 835.32842909 427.15565769 C850.0876608 397.64139619 864.85060198 368.12899159 879.61572266 338.61767578 C893.96069915 309.94608862 908.30398303 281.27365575 922.64501953 252.60009766 C923.546681 250.79731601 924.44834251 248.99453439 925.35000408 247.19175279 C932.67625773 232.54362297 940.00239446 217.89543468 947.32850285 203.24723221 C981.21374564 135.49552463 1015.10753098 67.74809396 1049 0 C1197.83 0 1346.66 0 1500 0 C1498.61016981 4.16949057 1497.30661376 7.63475116 1495.37158948 11.49601269 C1494.56676659 13.10932565 1494.56676659 13.10932565 1493.74568465 14.75523078 C1493.15544067 15.92817793 1492.5651967 17.10112509 1491.95706654 18.30961609 C1491.32137582 19.58004917 1490.68603917 20.85065946 1490.05102435 22.12143052 C1488.29988875 25.62319186 1486.54375041 29.12242378 1484.78682041 32.62128069 C1482.87825952 36.42433466 1480.97438899 40.22973574 1479.0699479 44.03485394 C1475.72984194 50.70688347 1472.38679951 57.37743506 1469.04185295 64.04703903 C1464.06793724 73.9647863 1459.09867046 83.8848575 1454.13050583 93.80548671 C1446.28587655 109.46979753 1438.43859012 125.13277528 1430.58954924 140.79487595 C1418.13358398 165.64986668 1405.68591715 190.50900623 1393.2410716 215.36956613 C1390.59371132 220.65805858 1387.94626992 225.94651043 1385.29883081 231.23496342 C1384.77107114 232.28920271 1384.24331148 233.34344199 1383.6995591 234.42962793 C1382.63009919 236.56595294 1381.56063866 238.70227764 1380.49117751 240.83860203 C1379.41776669 242.98281877 1378.34435826 245.12703671 1377.27095219 247.27125583 C1364.61059034 272.56138397 1351.94881164 297.85080257 1339.28588867 323.13964844 C1338.45466123 324.79968555 1338.45466123 324.79968555 1337.60664132 326.49325876 C1319.62557408 362.40293691 1301.63615407 398.30842408 1283.64325637 434.21217565 C1265.15248653 471.10955341 1246.67235425 508.01224148 1228.20480775 544.9212486 C1225.59891349 550.12933111 1222.99288564 555.33734675 1220.38677025 560.5453186 C1219.873847 561.57033272 1219.36092375 562.59534684 1218.83245737 563.65142199 C1210.56409277 580.17388997 1202.28428256 596.69059688 1194.00007104 613.20512405 C1185.68133264 629.78900204 1177.37400411 646.37855345 1169.07847968 662.97405601 C1164.14501902 672.8427175 1159.20257652 682.70676114 1154.24740348 692.5645391 C1150.94257034 699.14130878 1147.64927298 705.72376704 1144.36546665 712.31106052 C1142.49139043 716.06960044 1140.61223178 719.82536112 1138.7189993 723.57429349 C1136.9986188 726.98118722 1135.29298983 730.39503784 1133.59909462 733.81517361 C1132.6952721 735.63040902 1131.77564724 737.43774968 1130.8555086 739.24476922 C1130.32647056 740.32031119 1129.79743252 741.39585316 1129.25236303 742.50398731 C1128.78970403 743.42760998 1128.32704504 744.35123264 1127.85036607 745.30284387 C1126.18953218 750.57060849 1128.1359082 754.77178924 1130.50947338 759.51343942 C1131.04495188 760.59287312 1131.58043037 761.67230683 1132.13213548 762.78445065 C1133.02341972 764.5503995 1133.02341972 764.5503995 1133.93270969 766.35202408 C1134.56897652 767.62691003 1135.20454013 768.90214714 1135.8394638 770.17770255 C1137.59234122 773.69408389 1139.35519052 777.20538448 1141.11965125 780.71596454 C1143.03513423 784.53140721 1144.94132602 788.35148812 1146.84867948 792.17099929 C1150.19482535 798.86850917 1153.54690794 805.56302098 1156.90285873 812.25562286 C1161.89306606 822.20741937 1166.87409794 832.16378759 1171.85320132 842.12114334 C1180.22876508 858.87022778 1188.61166612 875.61562966 1196.99861336 892.35901642 C1205.30528829 908.94226849 1213.60831547 925.52733906 1221.90658379 942.1147995 C1222.68006218 943.66090847 1222.68006218 943.66090847 1223.4691664 945.23825197 C1226.08781478 950.47273975 1228.70638925 955.70726449 1231.32492965 960.94180629 C1249.88088439 998.03552934 1268.44365342 1035.12583833 1287.01098633 1072.21386719 C1288.13416142 1074.45740222 1289.25733636 1076.70093734 1290.38051116 1078.94447252 C1291.21527446 1080.61190633 1291.21527446 1080.61190633 1292.06690167 1082.31302566 C1294.88251638 1087.93719725 1297.69812737 1093.5613707 1300.51373291 1099.18554688 C1301.07207585 1100.30083583 1301.63041879 1101.41612479 1302.20568121 1102.56521039 C1315.17852999 1128.47853805 1328.14932278 1154.3928946 1341.11938477 1180.30761719 C1341.67504204 1181.4178395 1342.23069931 1182.52806182 1342.80319468 1183.67192723 C1355.48187966 1209.00441969 1368.15961595 1234.33738662 1380.83547878 1259.67129135 C1381.3677675 1260.735118 1381.90005622 1261.79894466 1382.4484749 1262.89500848 C1387.23585031 1272.46302745 1392.02318765 1282.03106546 1396.81032305 1291.59920451 C1408.76405803 1315.49135622 1420.72017321 1339.38231184 1432.68209306 1363.27036687 C1441.01556712 1379.91240433 1449.34649669 1396.5557131 1457.67467553 1413.2004011 C1462.6288743 1423.10159368 1467.58538968 1433.00161904 1472.54509769 1442.90005311 C1475.85181916 1449.50003385 1479.15569232 1456.10143498 1482.45719692 1462.70402688 C1484.34225411 1466.47368243 1486.22862219 1470.24266707 1488.11848391 1474.00991657 C1489.83419455 1477.43006474 1491.54628662 1480.85199757 1493.25538468 1484.27545471 C1493.87382707 1485.51259818 1494.49364231 1486.74905645 1495.1149204 1487.9847783 C1495.95223511 1489.65066858 1496.78422124 1491.31923405 1497.61587578 1492.98795724 C1498.07985038 1493.91469952 1498.54382498 1494.84144179 1499.02185941 1495.79626717 C1500 1498 1500 1498 1500 1500 C1351.17 1500 1202.34 1500 1049 1500 C974.12902386 1350.33880501 974.12902386 1350.33880501 945.50124502 1293.09881997 C938.01491027 1278.13023309 930.52853819 1263.16166489 923.04205111 1248.1931542 C922.13644793 1246.38248752 921.23084593 1244.57182026 920.32524511 1242.7611524 C905.87572368 1213.87065059 891.42361407 1184.98144442 876.97015817 1156.09291079 C862.12147898 1126.41439893 847.27540851 1096.73458357 832.43264208 1067.05311415 C830.33853346 1062.86547325 828.24439487 1058.67784735 826.15023804 1054.49023056 C825.73805919 1053.66600772 825.32588035 1052.84178488 824.90121124 1051.99258559 C818.25323049 1038.69899198 811.60248272 1025.40678455 804.95071158 1012.11508722 C798.27135434 998.76812039 791.59488481 985.41971234 784.92140222 972.06980719 C780.95140552 964.12828703 776.97915767 956.18790213 773.00374765 948.24909038 C770.35304588 942.95515073 767.70521469 937.65978218 765.05977398 932.36321158 C763.54938652 929.33939848 762.03727307 926.31648179 760.52253783 923.29484202 C758.89601745 920.04972759 757.27435311 916.80223393 755.65397644 913.55404854 C755.1758815 912.60311268 754.69778656 911.65217683 754.20520389 910.67242473 C753.77804556 909.8136135 753.35088724 908.95480226 752.91078472 908.06996644 C752.53892691 907.32656278 752.1670691 906.58315913 751.78394288 905.81722809 C751 904 751 904 751 902 C750.34 902 749.68 902 749 902 C748.65562966 903.1761271 748.65562966 903.1761271 748.30430233 904.37601435 C746.60158306 909.10699585 744.38786922 913.4956042 742.13116264 917.98377037 C741.62909634 918.99021066 741.12703004 919.99665094 740.60974962 921.03358942 C738.9176934 924.4230174 737.21992086 927.8095496 735.52218628 931.19613647 C734.29873204 933.64280349 733.07648648 936.09007374 731.85418522 938.53731692 C729.19157358 943.86668738 726.52599193 949.19456391 723.8584671 954.52147675 C719.89196297 962.44241941 715.93004477 970.3656494 711.96906867 978.28935758 C705.30608339 991.61795667 698.63937377 1004.94468962 691.97054672 1018.27036667 C685.36665028 1031.46632947 678.76440613 1044.66311676 672.16437149 1057.86101151 C671.75415032 1058.68131636 671.34392916 1059.50162122 670.92127704 1060.3467838 C668.83801817 1064.51262488 666.75478885 1068.67848075 664.67157091 1072.84434231 C649.9123392 1102.35860381 635.14939802 1131.87100841 620.38427734 1161.38232422 C606.03930085 1190.05391138 591.69601697 1218.72634425 577.35498047 1247.39990234 C576.453319 1249.20268399 575.55165749 1251.00546561 574.64999592 1252.80824721 C567.32374227 1267.45637703 559.99760554 1282.10456532 552.67149715 1296.75276779 C518.78625436 1364.50447537 484.89246902 1432.25190604 451 1500 C302.17 1500 153.34 1500 0 1500 C1.38983019 1495.83050943 2.69338624 1492.36524884 4.62841052 1488.50398731 C5.43323341 1486.89067435 5.43323341 1486.89067435 6.25431535 1485.24476922 C6.84455933 1484.07182207 7.4348033 1482.89887491 8.04293346 1481.69038391 C8.67862418 1480.41995083 9.31396083 1479.14934054 9.94897565 1477.87856948 C11.70011125 1474.37680814 13.45624959 1470.87757622 15.21317959 1467.37871931 C17.12174048 1463.57566534 19.02561101 1459.77026426 20.9300521 1455.96514606 C24.27015806 1449.29311653 27.61320049 1442.62256494 30.95814705 1435.95296097 C35.93206276 1426.0352137 40.90132954 1416.1151425 45.86949417 1406.19451329 C53.71412345 1390.53020247 61.56140988 1374.86722472 69.41045076 1359.20512405 C81.86641602 1334.35013332 94.31408285 1309.49099377 106.7589284 1284.63043387 C109.40628868 1279.34194142 112.05373008 1274.05348957 114.70116919 1268.76503658 C115.49280869 1267.18367765 115.49280869 1267.18367765 116.3004409 1265.57037207 C117.36990081 1263.43404706 118.43936134 1261.29772236 119.50882249 1259.16139797 C120.58223331 1257.01718123 121.65564174 1254.87296329 122.72904781 1252.72874417 C135.38940966 1227.43861603 148.05118836 1202.14919743 160.71411133 1176.86035156 C161.26826295 1175.75366016 161.82241458 1174.64696875 162.39335868 1173.50674124 C180.37442592 1137.59706309 198.36384593 1101.69157592 216.35674363 1065.78782435 C234.84751347 1028.89044659 253.32764575 991.98775852 271.79519225 955.0787514 C274.40108651 949.87066889 277.00711436 944.66265325 279.61322975 939.4546814 C280.126153 938.42966728 280.63907625 937.40465316 281.16754263 936.34857801 C289.43590723 919.82611003 297.71571744 903.30940312 305.99992896 886.79487595 C314.31866736 870.21099796 322.62599589 853.62144655 330.92152032 837.02594399 C335.85498098 827.1572825 340.79742348 817.29323886 345.75259652 807.4354609 C349.05742966 800.85869122 352.35072702 794.27623296 355.63453335 787.68893948 C357.50860957 783.93039956 359.38776822 780.17463888 361.2810007 776.42570651 C363.0013812 773.01881278 364.70701017 769.60496216 366.40090538 766.18482639 C367.3047279 764.36959098 368.22435276 762.56225032 369.1444914 760.75523078 C369.67352944 759.67968881 370.20256748 758.60414684 370.74763697 757.49601269 C371.21029597 756.57239002 371.67295496 755.64876736 372.14963393 754.69715613 C373.81046782 749.42939151 371.8640918 745.22821076 369.49052662 740.48656058 C368.95504812 739.40712688 368.41956963 738.32769317 367.86786452 737.21554935 C367.27367503 736.03825012 366.67948554 734.86095089 366.06729031 733.64797592 C365.43102348 732.37308997 364.79545987 731.09785286 364.1605362 729.82229745 C362.40765878 726.30591611 360.64480948 722.79461552 358.88034875 719.28403546 C356.96486577 715.46859279 355.05867398 711.64851188 353.15132052 707.82900071 C349.80517465 701.13149083 346.45309206 694.43697902 343.09714127 687.74437714 C338.10693394 677.79258063 333.12590206 667.83621241 328.14679868 657.87885666 C319.77123492 641.12977222 311.38833388 624.38437034 303.00138664 607.64098358 C294.69471171 591.05773151 286.39168453 574.47266094 278.09341621 557.8852005 C277.31993782 556.33909153 277.31993782 556.33909153 276.5308336 554.76174803 C273.91218522 549.52726025 271.29361075 544.29273551 268.67507035 539.05819371 C250.11911561 501.96447066 231.55634658 464.87416167 212.98901367 427.78613281 C211.86583858 425.54259778 210.74266364 423.29906266 209.61948884 421.05552748 C209.06297997 419.94390494 208.5064711 418.83228241 207.93309833 417.68697434 C205.11748362 412.06280275 202.30187263 406.4386293 199.48626709 400.81445312 C198.92792415 399.69916417 198.36958121 398.58387521 197.79431879 397.43478961 C184.82147001 371.52146195 171.85067722 345.6071054 158.88061523 319.69238281 C158.32495796 318.5821605 157.76930069 317.47193818 157.19680532 316.32807277 C144.51812034 290.99558031 131.84038405 265.66261338 119.16452122 240.32870865 C118.6322325 239.264882 118.09994378 238.20105534 117.5515251 237.10499152 C112.76414969 227.53697255 107.97681235 217.96893454 103.18967695 208.40079549 C91.23594197 184.50864378 79.27982679 160.61768816 67.31790694 136.72963313 C58.98443288 120.08759567 50.65350331 103.4442869 42.32532447 86.7995989 C37.3711257 76.89840632 32.41461032 66.99838096 27.45490231 57.09994689 C24.14818084 50.49996615 20.84430768 43.89856502 17.54280308 37.29597312 C15.65774589 33.52631757 13.77137781 29.75733293 11.88151609 25.99008343 C10.16580545 22.56993526 8.45371338 19.14800243 6.74461532 15.72454529 C6.12617293 14.48740182 5.50635769 13.25094355 4.8850796 12.0152217 C4.04776489 10.34933142 3.21577876 8.68076595 2.38412422 7.01204276 C1.92014962 6.08530048 1.45617502 5.15855821 0.97814059 4.20373283 C0 2 0 2 0 0 Z " fill="#4EBF8C" transform="translate(250,250)"/>
<path d="M0 0 C148.83 0 297.66 0 451 0 C449.60894373 4.17316882 448.30063462 7.64842857 446.36632812 11.51574075 C445.82860233 12.59568691 445.29087655 13.67563307 444.73685604 14.78830487 C444.14529357 15.96617579 443.55373109 17.14404672 442.94424248 18.3576107 C442.3071517 19.63327207 441.67041216 20.9091089 441.03399187 22.18510491 C439.27894976 25.70133113 437.51891709 29.21503897 435.75808256 32.72836727 C433.84531407 36.54704009 431.93718681 40.36803116 430.02847683 44.1887337 C426.68092566 50.88798615 423.33039941 57.58574396 419.97793579 64.28253937 C414.99293933 74.24047404 410.01252219 84.20069388 405.03305122 94.16139249 C396.65710888 110.91590659 388.27743979 127.66855418 379.89565659 144.42014694 C371.59478031 161.01007177 363.29555449 177.60082051 354.99853897 194.19267654 C354.48295545 195.22370611 353.96737193 196.25473568 353.43616466 197.31700856 C350.81786238 202.55293648 348.19958964 207.78887917 345.58132829 213.02482755 C327.02860958 250.12606241 308.47218075 287.22544049 289.91357422 324.32373047 C271.88240049 360.36771383 253.85290477 396.41253571 235.82568359 432.45849609 C235.27015785 433.56928454 234.7146321 434.68007298 234.14227224 435.82452167 C228.5635356 446.97935794 222.98483311 458.13421129 217.40615564 469.28907715 C206.04140492 492.01350595 194.67642627 514.73782076 183.31130981 537.46206665 C182.78874251 538.50692667 182.26617522 539.55178669 181.72777254 540.62830913 C146.82233284 610.42078237 111.91157959 680.21059789 77 750 C73.80083504 747.00592906 72.07163337 743.56430884 70.14538956 739.67947578 C69.7651211 738.92449757 69.38485263 738.16951936 68.99306089 737.39166301 C67.71184489 734.84426842 66.43926226 732.29265731 65.16656494 729.74099731 C64.2439366 727.9020577 63.32078999 726.06337803 62.39716792 724.22493732 C59.85401379 719.15898471 57.31842555 714.08927739 54.78405738 709.01892495 C52.05216208 703.55657552 49.31341815 698.09766127 46.5756073 692.63827515 C41.21080599 681.93748452 35.85273988 671.233338 30.49743518 660.52779306 C29.87585796 659.28522823 29.25427923 658.04266414 28.63269901 656.8001008 C28.32410266 656.18320382 28.01550631 655.56630685 27.69755855 654.93071602 C24.27976295 648.09871678 20.85985246 641.26777665 17.43984222 634.43688583 C7.11433503 613.81291851 -3.20936458 593.18804939 -13.52497482 572.55912971 C-13.85497983 571.89919818 -14.18498484 571.23926664 -14.52499 570.55933718 C-16.19766677 567.2143739 -17.87032767 563.86940267 -19.54298791 560.52443112 C-20.21436821 559.18181474 -20.88574854 557.83919838 -21.55712891 556.49658203 C-21.88976093 555.83138464 -22.22239295 555.16618726 -22.56510473 554.48083237 C-33.02153518 533.57026524 -43.48888074 512.66519284 -53.96435547 491.76416016 C-65.72753877 468.29383877 -77.48123121 444.81879703 -89.2217505 421.33712947 C-90.4728342 418.83498427 -91.72395623 416.33285823 -92.97510529 413.8307457 C-93.28317576 413.2146372 -93.59124624 412.5985287 -93.90865219 411.96375025 C-98.87339126 402.03536264 -103.84720971 392.11155037 -108.82420329 382.18930127 C-113.82257015 372.22383464 -118.81029268 362.25309472 -123.78790441 352.27724041 C-126.48648365 346.86960591 -129.1896084 341.46436974 -131.90486336 336.06508636 C-134.38765146 331.12778656 -136.85756705 326.18427453 -139.31714132 321.23537146 C-140.21185776 319.44087286 -141.11136926 317.64875588 -142.01599357 315.85923149 C-143.23988264 313.43643136 -144.44639505 311.00574525 -145.64875412 308.5722065 C-146.00829262 307.87066104 -146.36783113 307.16911559 -146.73826474 306.44631118 C-148.11070211 303.62991948 -149.02700507 301.5162898 -148.86160403 298.3541109 C-147.90050388 295.72815251 -146.81805561 293.26379155 -145.56558132 290.76201916 C-145.04788488 289.72065367 -144.53018845 288.67928818 -143.99680424 287.60636616 C-143.42401958 286.46953483 -142.85123491 285.3327035 -142.26109314 284.16142273 C-141.65072732 282.93937846 -141.04088907 281.71707058 -140.43153381 280.49452209 C-138.75245424 277.12962993 -137.06588432 273.76854017 -135.37811033 270.40800248 C-133.53261352 266.73009689 -131.69410143 263.04870163 -129.85470676 259.36774158 C-126.28210503 252.22094225 -122.70332971 245.07725231 -119.12239629 237.93462463 C-114.98113939 229.67369647 -110.84756306 221.40894163 -106.71398926 213.14416504 C-95.79503077 191.32200414 -84.86562342 169.50507271 -73.9375 147.6875 C-37.3384375 74.5821875 -37.3384375 74.5821875 0 0 Z " fill="#35495E" transform="translate(1299,250)"/>
<path d="M0 0 C148.83 0 297.66 0 451 0 C475.605625 49.066875 500.21125 98.13375 525.5625 148.6875 C533.35045166 164.19967529 541.13840332 179.71185059 549.16235352 195.6940918 C558.62487793 214.58752441 558.62487793 214.58752441 563.04551697 223.42292786 C566.14623724 229.61782419 569.2546033 235.80880989 572.3681488 241.99726868 C575.95601951 249.12855776 579.5342335 256.26459067 583.10042977 263.40674489 C584.9263157 267.06274694 586.75656322 270.71637907 588.59923089 274.36395586 C590.2638003 277.65919 591.91546156 280.96055424 593.55685043 284.26739311 C594.4381107 286.03431237 595.33325317 287.79428648 596.22878933 289.55401325 C596.74598852 290.60234774 597.26318771 291.65068222 597.79605961 292.73078442 C598.24906596 293.63413908 598.70207232 294.53749375 599.16880614 295.4682228 C600.99915941 301.04339231 597.89314226 305.64062692 595.39986515 310.57779312 C595.02280317 311.33627741 594.64574118 312.0947617 594.25725308 312.87623036 C592.98627539 315.42917544 591.70675538 317.97774201 590.42726135 320.52642822 C589.5074841 322.36943778 588.5882304 324.21270871 587.6694569 326.05621886 C585.13844057 331.13081162 582.59991636 336.20161671 580.06016576 341.27184248 C577.32439419 346.73661614 574.59551266 352.20482889 571.86575317 357.67260742 C566.82495561 367.76679105 561.77868089 377.85822231 556.72956617 387.94824702 C552.06628904 397.2672605 547.40523832 406.58738323 542.74641228 415.90862274 C542.43761593 416.52644458 542.12881959 417.14426642 541.81066578 417.78081014 C540.55724001 420.28859566 539.30382273 422.79638542 538.05041942 425.30418217 C526.28933707 448.83552679 514.52125407 472.36336421 502.75004336 495.88964359 C492.28475492 516.80597837 481.82568089 537.7254094 471.37182617 558.64746094 C459.63316722 582.14082967 447.89064669 605.63226154 436.14185566 629.12056518 C434.89036395 631.6225864 433.63888171 634.12461235 432.38740349 636.62664032 C431.92516167 637.5507681 431.92516167 637.5507681 431.45358164 638.49356514 C426.7931277 647.81105567 422.13564436 657.13002712 417.47958565 666.44971466 C412.18833356 677.04077864 406.89271135 687.6296446 401.59162612 698.21579149 C398.88461322 703.62190547 396.17956875 709.02898135 393.47966957 714.43865204 C391.01196257 719.38295306 388.53880865 724.32448748 386.06112992 729.26379868 C385.16199167 731.05870189 384.2649117 732.85463782 383.37001354 734.6516588 C382.16080828 737.07908641 380.9443991 739.50276089 379.72597599 741.92557144 C379.37374683 742.63705326 379.02151767 743.34853507 378.6586149 744.08157694 C376.22830083 748.88584959 376.22830083 748.88584959 374 750 C338.34158115 678.717424 302.68414637 607.43435577 267.03198242 536.14865112 C266.50474058 535.09444356 265.97749874 534.04023599 265.43427987 532.95408274 C253.97728387 510.04607585 242.52046572 487.13798001 231.06383091 464.22979248 C225.44590736 452.99644015 219.82794448 441.76310749 214.20996094 430.52978516 C213.65088977 429.41190434 213.0918186 428.29402352 212.51580589 427.14226753 C194.37830858 390.87580325 176.23821259 354.61063956 158.0967757 318.34614583 C139.46190973 281.09525971 120.82965191 243.8430702 102.20069845 206.58922689 C99.57251521 201.33343676 96.94430201 196.07766162 94.31607056 190.8218956 C93.79877228 189.78743389 93.281474 188.75297217 92.74850001 187.68716313 C84.40450367 171.0015385 76.05773999 154.31729966 67.70995346 137.63357098 C59.32788135 120.88117335 50.94869579 104.12733455 42.57249808 87.37199892 C37.58936783 77.40421146 32.60398478 67.4375581 27.61544168 57.47247844 C24.28941408 50.82788556 20.96625484 44.18186359 17.64548815 37.53463992 C15.74938742 33.73939945 13.85198575 29.9448241 11.95110452 26.15197541 C10.22536708 22.70853221 8.50325196 19.26330405 6.78413545 15.81655084 C6.16206123 14.57096184 5.53861538 13.32605678 4.91370811 12.0818867 C4.07151001 10.40462307 3.23463867 8.7246878 2.39809895 7.04459488 C1.6980579 5.64498074 1.6980579 5.64498074 0.98387462 4.21709157 C0 2 0 2 0 0 Z " fill="#35495E" transform="translate(250,250)"/>
</svg>
